<svg class="icon" style="width: 1em;height: 1em;vertical-align: middle;fill: currentColor;overflow: hidden;"
    viewBox="0 0 1024 1024" version="1.1" xmlns="http://www.w3.org/2000/svg" p-id="9768">
    <path
        d="M922.666667 305.866667v-22.026667a112 112 0 0 0-112-112 112 112 0 0 0-112 112v22.026667a10.666667 10.666667 0 0 1-10.666667 10.666666h-53.333333a10.666667 10.666667 0 0 1-10.666667-10.666666v-22.026667a112 112 0 0 0-112-112 112 112 0 0 0-112 112v22.026667a10.666667 10.666667 0 0 1-10.666667 10.666666H336a10.666667 10.666667 0 0 1-10.666667-10.666666v-22.026667a112 112 0 0 0-112-112 112 112 0 0 0-112 112v22.026667a10.666667 10.666667 0 0 1-10.666666 10.666666h-37.333334a10.666667 10.666667 0 0 0-10.666666 10.666667v53.333333a10.666667 10.666667 0 0 0 10.666666 10.666667h37.333334a10.666667 10.666667 0 0 1 10.666666 10.666667v220.8a10.666667 10.666667 0 0 0 1.066667 4.693333l72.693333 148.053333a10.666667 10.666667 0 0 1 1.12 4.693334v17.92a10.666667 10.666667 0 0 0 10.666667 10.666666H240a10.666667 10.666667 0 0 0 10.666667-10.666666v-17.92a10.666667 10.666667 0 0 1 1.12-4.693334l72.48-148.053333a10.666667 10.666667 0 0 0 1.066666-4.693333v-220.8a10.666667 10.666667 0 0 1 10.666667-10.666667h53.333333a10.666667 10.666667 0 0 1 10.666667 10.666667v220.8a10.666667 10.666667 0 0 0 1.066667 4.693333l72.693333 148.053333a10.666667 10.666667 0 0 1 1.12 4.693334v17.92a10.666667 10.666667 0 0 0 10.666667 10.666666H538.666667a10.666667 10.666667 0 0 0 10.666666-10.666666v-17.92a10.666667 10.666667 0 0 1 1.12-4.693334l72.693334-148.053333a10.666667 10.666667 0 0 0 1.066666-4.693333v-220.8a10.666667 10.666667 0 0 1 10.666667-10.666667h53.333333a10.666667 10.666667 0 0 1 10.666667 10.666667v220.8a10.666667 10.666667 0 0 0 1.066667 4.693333l72.693333 148.053333a10.666667 10.666667 0 0 1 1.12 4.693334v17.92a10.666667 10.666667 0 0 0 10.666667 10.666666H837.333333a10.666667 10.666667 0 0 0 10.666667-10.666666v-17.92a10.666667 10.666667 0 0 1 1.12-4.693334l72.693333-148.053333a10.666667 10.666667 0 0 0 1.066667-4.693333v-220.8a10.666667 10.666667 0 0 1 10.666667-10.666667h48v-74.666667h-48a10.666667 10.666667 0 0 1-10.88-10.666666z m-673.066667 304l-21.866667 44.48a16 16 0 0 1-28.8 0l-21.866666-44.48a10.666667 10.666667 0 0 1-1.066667-4.693334V284.96a37.973333 37.973333 0 0 1 28.96-37.333333A37.333333 37.333333 0 0 1 250.666667 283.84v321.493333a10.666667 10.666667 0 0 1-1.066667 4.693334z m298.666667 0l-21.866667 44.533333a16 16 0 0 1-28.8 0l-21.866667-44.533333a10.666667 10.666667 0 0 1-1.066666-4.693334V284.96a37.973333 37.973333 0 0 1 28.96-37.333333 37.333333 37.333333 0 0 1 45.706666 36.213333v321.493333a10.666667 10.666667 0 0 1-1.066666 4.693334z m298.666666 0l-26.666666 54.346666a10.666667 10.666667 0 0 1-19.2 0l-26.666667-54.346666a10.666667 10.666667 0 0 1-1.066667-4.693334V284.96a37.973333 37.973333 0 0 1 28.96-37.333333 37.333333 37.333333 0 0 1 45.706667 36.213333v321.493333a10.666667 10.666667 0 0 1-1.066667 4.693334z"
        p-id="9769"></path>
</svg>